<?xml version="1.0" encoding="UTF-8"?>
<svg id="_레이어_2" data-name="레이어_2" xmlns="http://www.w3.org/2000/svg" viewBox="0 0 290.05 63.52">
  <defs>
    <style>
      .cls-1 {
        fill: #231815;
      }

      .cls-2 {
        fill: #fcb326;
      }

      .cls-3 {
        fill: #fff;
      }

      .cls-4 {
        fill: #8daeff;
      }
    </style>
  </defs>
  <g id="_레이어_1-2" data-name="레이어_1">
    <circle class="cls-2" cx="31.76" cy="31.76" r="31.76"/>
    <g>
      <path class="cls-3" d="M53.89,28.9c-.5-.28-.89-.76-1.37-1.08-.95-.64-1.15-1.53-1.04-2.6.14-1.32-.47-2.17-1.66-2.8-.57-.3-1.23-.99-1.31-1.58-.24-1.69-1.12-2.56-2.78-2.93-.77-.17-1.21-.52-1.5-1.24-.5-1.25-1.35-2.12-2.83-1.89-1.18.19-1.94-.4-2.65-1.2-.68-.77-1.4-1.1-2.51-.72-.91.32-1.95.44-2.85-.28-1-.81-2.78-.78-3.77,0-.9.72-1.94.6-2.85.28-1.1-.38-1.83-.05-2.51.72-.7.8-1.46,1.39-2.65,1.2-1.48-.23-2.33.64-2.83,1.89-.29.72-.73,1.07-1.5,1.24-1.66.38-2.54,1.24-2.78,2.93-.08.59-.74,1.27-1.31,1.58-1.19.63-1.8,1.48-1.66,2.8.12,1.07-.08,1.96-1.04,2.6-.48.32-.87.81-1.37,1.08-1.62.9-1.96,2.32-1.81,4.01.2,2.29.92,4.41,1.85,6.5,1.97,4.43,4.95,7.92,9.08,10.47.46.28.81,1.03.88,1.6.14,1.13.09,2.29.03,3.43-.06,1.02.33,1.34,1.33,1.33,3.62-.05,11.09-.02,11.14-.02,3.62,0,7.24-.03,10.85.02,1,.01,1.39-.31,1.33-1.33-.07-1.14-.11-2.3.03-3.43.07-.57.42-1.32.88-1.6,4.13-2.55,7.11-6.04,9.08-10.47.93-2.09,1.65-4.21,1.85-6.5.15-1.69-.19-3.11-1.81-4.01Z"/>
      <path d="M53.89,28.9c-.5-.28-.89-.76-1.37-1.08-.95-.64-1.15-1.53-1.04-2.6.14-1.32-.47-2.17-1.66-2.8-.57-.3-1.23-.99-1.31-1.58-.24-1.69-1.12-2.56-2.78-2.93-.77-.17-1.21-.52-1.5-1.24-.5-1.25-1.35-2.12-2.83-1.89-1.18.19-1.94-.4-2.65-1.2-.68-.77-1.4-1.1-2.51-.72-.91.32-1.95.44-2.85-.28-1-.81-2.78-.78-3.77,0-.9.72-1.94.6-2.85.28-1.1-.38-1.83-.05-2.51.72-.7.8-1.46,1.39-2.65,1.2-1.48-.23-2.33.64-2.83,1.89-.29.72-.73,1.07-1.5,1.24-1.66.38-2.54,1.24-2.78,2.93-.08.59-.74,1.27-1.31,1.58-1.19.63-1.8,1.48-1.66,2.8.12,1.07-.08,1.96-1.04,2.6-.48.32-.87.81-1.37,1.08-1.62.9-1.96,2.32-1.81,4.01.2,2.29.92,4.41,1.85,6.5,1.97,4.43,4.95,7.92,9.08,10.47.46.28.81,1.03.88,1.6.14,1.13.09,2.29.03,3.43-.06,1.02.33,1.34,1.33,1.33,3.62-.05,10.95-.02,11-.02s.1,0,.14,0c3.62,0,7.24-.03,10.85.02,1,.01,1.39-.31,1.33-1.33-.07-1.14-.11-2.3.03-3.43.07-.57.42-1.32.88-1.6,4.13-2.55,7.11-6.04,9.08-10.47.93-2.09,1.65-4.21,1.85-6.5.15-1.69-.19-3.11-1.81-4.01ZM15.64,23.41c.62-.28.9-1.48,1.19-2.32.22-.63.45-1,1.18-1.06,1.17-.11,2.07-.7,2.49-1.85.31-.85.87-1.24,1.77-1.06,1.29.26,2.16-.47,2.94-1.31.62-.67.99-1.23,2.13-.58.73.42,1.99.58,2.84-.38.68-.76,1.99-.76,2.72,0,.88.93,2.11.79,2.84.38,1.14-.65,1.51-.09,2.13.58.77.84,1.65,1.57,2.94,1.31.9-.18,1.46.21,1.77,1.06.42,1.14,1.32,1.74,2.49,1.85.73.07.96.43,1.18,1.06.29.83.57,2.04,1.19,2.32,1.59.71,1.92,1.78,1.7,3.28-.02.11,0,.22,0,.33.03.71.15,1.16-.08,1.2H14c-.23-.04-.11-.49-.08-1.2,0-.11.03-.22,0-.33-.22-1.5.11-2.57,1.7-3.28ZM41.57,53.88c0,.42-.34.76-.76.76h-18.56c-.42,0-.76-.34-.76-.76v-2.55c0-.42.34-.76.76-.76h18.56c.42,0,.76.34.76.76v2.55ZM53.31,33.06c-.49,3.07-1.58,5.93-3.32,8.49-1.42,2.09-3.03,4.06-5.17,5.46-1.01.66-2.21,1.43-3.33,1.44-3.32.05-6.63.04-9.95.01h0s0,0,0,0h0c-3.32.03-6.63.03-9.95-.01-1.12-.02-2.32-.78-3.33-1.44-2.14-1.4-3.75-3.37-5.17-5.46-1.75-2.57-2.83-5.42-3.32-8.49-.27-1.68.51-2.35,2.16-2.34,5.5.04,33.74.04,39.24,0,1.65-.01,2.43.67,2.16,2.34Z"/>
    </g>
    <g>
      <path d="M88.67,32.12c-3.94,0-6.83-.81-8.67-2.43-1.84-1.62-2.76-3.96-2.76-7.03v-11.49c0-.66.16-1.24.49-1.75.33-.51.76-.94,1.29-1.29.53-.35,1.13-.61,1.8-.79.67-.18,1.38-.27,2.11-.27.69,0,1.39.09,2.08.27.69.18,1.31.45,1.86.79.55.35.98.78,1.31,1.29.33.51.49,1.09.49,1.75v4.65h7.38v-4.65c0-.66.16-1.24.49-1.75.33-.51.76-.94,1.29-1.29.53-.35,1.13-.61,1.8-.79.67-.18,1.36-.27,2.05-.27.73,0,1.44.09,2.13.27.69.18,1.3.45,1.83.79.53.35.96.78,1.29,1.29.33.51.49,1.09.49,1.75v16.9c0,.66-.16,1.24-.49,1.75-.33.51-.76.93-1.29,1.26-.53.33-1.14.58-1.83.77-.69.18-1.4.27-2.13.27h-13.02ZM92.23,56.73c-4.01,0-6.96-.83-8.83-2.49-1.88-1.66-2.82-4.06-2.82-7.19v-7.11c0-.69.16-1.29.49-1.8.33-.51.77-.94,1.31-1.29.55-.35,1.17-.61,1.86-.79.69-.18,1.4-.27,2.13-.27s1.45.09,2.16.27,1.34.45,1.89.79c.55.35.98.78,1.31,1.29.33.51.49,1.11.49,1.8v2.9h18.92v-2.95c0-.66.16-1.24.49-1.75.33-.51.77-.94,1.31-1.29.55-.35,1.16-.61,1.83-.79.67-.18,1.38-.27,2.11-.27.77,0,1.5.09,2.22.27s1.34.45,1.89.79c.55.35.98.78,1.31,1.29.33.51.49,1.09.49,1.75v12.63c0,.69-.16,1.3-.49,1.83-.33.53-.77.96-1.31,1.31-.55.35-1.18.61-1.89.79-.71.18-1.45.27-2.22.27h-24.67ZM88.67,27.74h7.38v-7.55h-7.38v7.55ZM92.23,52.35h18.92v-5.14h-18.92v5.14ZM122.8,17.73h4.7c.51,0,.9.24,1.18.71.27.47.41.97.41,1.48,0,.58-.14,1.09-.41,1.53-.27.44-.67.66-1.18.66h-4.7v7.77c0,.69-.16,1.29-.49,1.8-.33.51-.77.94-1.31,1.29s-1.18.61-1.89.79-1.45.27-2.22.27-1.43-.09-2.11-.27c-.68-.18-1.29-.45-1.83-.79-.55-.35-.98-.77-1.31-1.29-.33-.51-.49-1.11-.49-1.8V10.62c0-.69.16-1.29.49-1.8.33-.51.77-.94,1.31-1.29.55-.35,1.16-.6,1.83-.77.67-.16,1.38-.25,2.11-.25.77,0,1.5.08,2.22.25s1.34.42,1.89.77c.55.35.98.78,1.31,1.29.33.51.49,1.11.49,1.8v7.11Z"/>
      <path d="M132.37,12.26c-.51,0-.9-.22-1.18-.66-.27-.44-.41-.95-.41-1.53,0-.51.14-1,.41-1.48.27-.47.66-.71,1.18-.71h30.3c.51,0,.9.24,1.18.71.27.47.41.97.41,1.48,0,.58-.14,1.09-.41,1.53-.27.44-.67.66-1.18.66h-30.3ZM145.39,49.62h4.27V17.4c0-.66.16-1.24.49-1.75.33-.51.77-.94,1.31-1.29.55-.35,1.18-.61,1.89-.79s1.43-.27,2.16-.27,1.39.09,2.08.27c.69.18,1.31.45,1.86.79s.98.78,1.31,1.29c.33.51.49,1.09.49,1.75v24.23c0,1.64-.26,3.15-.79,4.51-.53,1.37-1.32,2.52-2.38,3.47h5.14c.51,0,.9.24,1.18.71s.41.97.41,1.48c0,.58-.14,1.09-.41,1.53-.27.44-.67.66-1.18.66h-30.85c-.51,0-.9-.22-1.18-.66-.27-.44-.41-.95-.41-1.53,0-.51.14-1,.41-1.48s.66-.71,1.18-.71h4.54c-1.06-.95-1.84-2.11-2.35-3.47-.51-1.37-.77-2.87-.77-4.51v-24.23c0-.66.16-1.24.49-1.75.33-.51.77-.94,1.31-1.29.55-.35,1.16-.61,1.83-.79.67-.18,1.38-.27,2.11-.27s1.45.09,2.16.27c.71.18,1.34.45,1.89.79s.98.78,1.31,1.29c.33.51.49,1.09.49,1.75v32.21ZM178.04,52.84c0,.69-.16,1.29-.49,1.81-.33.51-.77.94-1.31,1.29-.55.35-1.18.61-1.89.79-.71.18-1.45.27-2.21.27s-1.43-.09-2.11-.27c-.68-.18-1.29-.45-1.83-.79-.55-.35-.99-.78-1.31-1.29-.33-.51-.49-1.11-.49-1.81V10.62c0-.69.16-1.29.49-1.8.33-.51.77-.94,1.31-1.29.55-.35,1.16-.6,1.83-.77.67-.16,1.38-.25,2.11-.25.77,0,1.5.08,2.21.25s1.34.42,1.89.77c.55.35.98.78,1.31,1.29.33.51.49,1.11.49,1.8v42.22Z"/>
      <path d="M186.02,20.85c0-4.41,1.03-7.88,3.09-10.42,2.06-2.53,4.91-3.8,8.56-3.8,3.32,0,5.99,1.05,8.01,3.15,2.02,2.1,3.22,5.02,3.58,8.78h2.24v-8.53c0-1.13.5-2,1.5-2.6s2.12-.9,3.36-.9c.66,0,1.29.07,1.89.22.6.15,1.13.37,1.59.68.46.31.83.68,1.12,1.12.29.44.44.93.44,1.48v28.93c0,.58-.15,1.09-.44,1.53-.29.44-.67.81-1.12,1.12-.46.31-.98.54-1.59.68-.6.15-1.23.22-1.89.22-.62,0-1.22-.07-1.8-.22-.58-.14-1.1-.37-1.56-.68-.46-.31-.82-.68-1.09-1.12s-.41-.95-.41-1.53v-16.02h-2.24c-.33,3.79-1.51,6.75-3.56,8.89-2.04,2.13-4.72,3.2-8.04,3.2-3.65,0-6.5-1.26-8.56-3.77-2.06-2.52-3.09-5.98-3.09-10.39ZM202.05,52.35h30.96c.51,0,.9.24,1.18.71s.41.97.41,1.48c0,.58-.14,1.09-.41,1.53s-.67.66-1.18.66h-30.96c-4.19,0-7.26-.86-9.19-2.57-1.93-1.71-2.9-4.21-2.9-7.49v-4.92c0-.73.17-1.37.52-1.91.35-.55.8-.99,1.37-1.34.57-.35,1.2-.61,1.91-.79.71-.18,1.45-.27,2.22-.27s1.51.09,2.24.27c.73.18,1.38.45,1.94.79.56.35,1.02.79,1.37,1.34.35.55.52,1.19.52,1.91v10.61ZM195.87,20.85c0,3.5.19,6.04.58,7.63s.79,2.38,1.23,2.38c.47,0,.91-.79,1.31-2.38.4-1.59.6-4.13.6-7.63s-.19-6.1-.57-7.68c-.38-1.59-.83-2.38-1.34-2.38-.44,0-.85.79-1.23,2.38-.38,1.59-.58,4.15-.58,7.68ZM233.28,39.17c0,1.17-.52,2.06-1.56,2.68-1.04.62-2.21.93-3.53.93-.62,0-1.22-.08-1.81-.25s-1.11-.39-1.59-.68c-.47-.29-.85-.66-1.12-1.12-.27-.46-.41-.97-.41-1.56V10.07c0-.58.14-1.09.41-1.53.27-.44.65-.8,1.12-1.09.47-.29,1-.52,1.59-.68s1.18-.25,1.81-.25c1.31,0,2.49.3,3.53.9s1.56,1.49,1.56,2.65v29.1Z"/>
      <path d="M240.77,53.39c-.51,0-.9-.22-1.18-.66s-.41-.95-.41-1.53c0-.51.14-1,.41-1.48.27-.47.67-.71,1.18-.71h47.69c.51,0,.9.24,1.18.71.27.47.41.97.41,1.48,0,.58-.14,1.09-.41,1.53s-.67.66-1.18.66h-47.69ZM269.49,16.69c0,.84-.07,1.66-.22,2.46-.15.8-.35,1.59-.6,2.35,3.75.18,6.87.58,9.35,1.2,2.48.62,4.44,1.36,5.88,2.21,1.44.86,2.45,1.78,3.04,2.76.58.98.88,1.95.88,2.9s-.18,1.84-.55,2.68c-.37.84-.86,1.57-1.48,2.19-.62.62-1.36,1.11-2.22,1.48-.86.37-1.78.55-2.76.55-1.82,0-3.77-1.12-5.85-3.36-2.08-2.24-4.39-5.9-6.95-10.97-.95,2.04-2.31,3.88-4.07,5.52-1.77,1.64-3.78,3.04-6.02,4.18-2.24,1.15-4.64,2.04-7.19,2.68-2.55.64-5.09.96-7.6.96-.51,0-.9-.23-1.18-.68s-.41-.96-.41-1.5c0-.51.14-1,.41-1.48s.67-.71,1.18-.71c2.3,0,4.36-.39,6.18-1.18,1.82-.78,3.36-1.87,4.62-3.25,1.26-1.38,2.21-3.04,2.87-4.95.66-1.92.98-4,.98-6.26v-5.31c0-.66.16-1.24.49-1.75.33-.51.77-.94,1.31-1.29.55-.35,1.16-.61,1.83-.79.68-.18,1.38-.27,2.11-.27.77,0,1.51.09,2.22.27.71.18,1.35.45,1.91.79.56.35,1.01.78,1.34,1.29.33.51.49,1.09.49,1.75v5.52Z"/>
    </g>
    <circle cx="25.98" cy="19.65" r="1.61"/>
    <circle cx="35.7" cy="19.65" r="1.61"/>
    <ellipse class="cls-4" cx="23.2" cy="23.25" rx="2.59" ry="1.16"/>
    <ellipse class="cls-4" cx="38.3" cy="23.25" rx="2.59" ry="1.16"/>
    <rect x="46.09" y="7.21" width="2.56" height="6.86" rx="1.16" ry="1.16" transform="translate(25.85 -32.88) rotate(51.03)"/>
    <rect x="49.91" y="10.52" width="2.56" height="6.86" rx="1.16" ry="1.16" transform="translate(47.8 -39) rotate(71.09)"/>
    <path class="cls-1" d="M33.56,23.96c-.96.46-1.76.69-2.61.68-.85.01-1.66-.22-2.61-.68-.03-.01-.07-.02-.06.03l.03.1c.32,1.1,1.48,1.66,2.64,1.65h.01c1.17,0,2.32-.56,2.64-1.65l.03-.1s-.03-.04-.06-.03Z"/>
  </g>
</svg>