<?xml version="1.0" encoding="UTF-8"?>
<svg id="_레이어_2" data-name="레이어_2" xmlns="http://www.w3.org/2000/svg" viewBox="0 0 96.19 96.19">
  <defs>
    <style>
      .cls-1 {
        fill: #231815;
      }

      .cls-2 {
        fill: #fcb326;
      }

      .cls-3 {
        fill: #fff;
      }

      .cls-4 {
        fill: #8daeff;
      }
    </style>
  </defs>
  <g id="_레이어_1-2" data-name="레이어_1">
    <circle class="cls-2" cx="48.09" cy="48.09" r="48.09"/>
    <g>
      <path class="cls-3" d="M81.61,43.76c-.76-.42-1.34-1.15-2.07-1.64-1.44-.97-1.75-2.31-1.57-3.94.22-2-.71-3.29-2.51-4.24-.87-.46-1.86-1.5-1.99-2.39-.36-2.57-1.69-3.87-4.2-4.44-1.16-.26-1.83-.79-2.27-1.88-.76-1.89-2.04-3.21-4.28-2.86-1.79.28-2.94-.61-4.01-1.82-1.03-1.17-2.12-1.67-3.8-1.09-1.38.48-2.96.66-4.31-.43-1.52-1.22-4.21-1.19-5.7,0-1.36,1.08-2.94.91-4.31.43-1.67-.58-2.77-.08-3.8,1.09-1.06,1.21-2.21,2.1-4.01,1.82-2.24-.35-3.52.97-4.28,2.86-.44,1.09-1.11,1.62-2.27,1.88-2.51.57-3.85,1.88-4.2,4.44-.12.89-1.12,1.93-1.99,2.39-1.8.95-2.73,2.24-2.51,4.24.18,1.63-.13,2.97-1.57,3.94-.73.49-1.31,1.22-2.07,1.64-2.46,1.36-2.97,3.52-2.75,6.08.3,3.47,1.39,6.68,2.8,9.85,2.98,6.7,7.5,11.99,13.75,15.85.7.43,1.23,1.56,1.34,2.43.21,1.71.14,3.46.04,5.19-.09,1.54.5,2.03,2.02,2.01,5.48-.07,16.8-.03,16.87-.03,5.48,0,10.96-.04,16.44.03,1.52.02,2.11-.47,2.02-2.01-.1-1.73-.17-3.48.04-5.19.11-.87.64-2,1.34-2.43,6.26-3.86,10.77-9.15,13.75-15.85,1.41-3.17,2.5-6.38,2.8-9.85.22-2.56-.29-4.71-2.75-6.08Z"/>
      <path d="M81.61,43.76c-.76-.42-1.34-1.15-2.07-1.64-1.44-.97-1.75-2.31-1.57-3.94.22-2-.71-3.29-2.51-4.24-.87-.46-1.86-1.5-1.99-2.39-.36-2.57-1.69-3.87-4.2-4.44-1.16-.26-1.83-.79-2.27-1.88-.76-1.89-2.04-3.21-4.28-2.86-1.79.28-2.94-.61-4.01-1.82-1.03-1.17-2.12-1.67-3.8-1.09-1.38.48-2.96.66-4.31-.43-1.52-1.22-4.21-1.19-5.7,0-1.36,1.08-2.94.91-4.31.43-1.67-.58-2.77-.08-3.8,1.09-1.06,1.21-2.21,2.1-4.01,1.82-2.24-.35-3.52.97-4.28,2.86-.44,1.09-1.11,1.62-2.27,1.88-2.51.57-3.85,1.88-4.2,4.44-.12.89-1.12,1.93-1.99,2.39-1.8.95-2.73,2.24-2.51,4.24.18,1.63-.13,2.97-1.57,3.94-.73.49-1.31,1.22-2.07,1.64-2.46,1.36-2.97,3.52-2.75,6.08.3,3.47,1.39,6.68,2.8,9.85,2.98,6.7,7.5,11.99,13.75,15.85.7.43,1.23,1.56,1.34,2.43.21,1.71.14,3.46.04,5.19-.09,1.54.5,2.03,2.02,2.01,5.48-.07,16.58-.03,16.65-.03s.14,0,.22,0c5.48,0,10.96-.04,16.44.03,1.52.02,2.11-.47,2.02-2.01-.1-1.73-.17-3.48.04-5.19.11-.87.64-2,1.34-2.43,6.26-3.86,10.77-9.15,13.75-15.85,1.41-3.17,2.5-6.38,2.8-9.85.22-2.56-.29-4.71-2.75-6.08ZM23.68,35.45c.94-.42,1.37-2.25,1.8-3.51.33-.96.68-1.51,1.79-1.61,1.77-.16,3.13-1.07,3.77-2.8.48-1.29,1.32-1.87,2.68-1.6,1.96.39,3.28-.71,4.45-1.98.93-1.01,1.5-1.86,3.22-.88,1.11.63,3.01.87,4.3-.57,1.03-1.16,3.02-1.16,4.11,0,1.33,1.41,3.19,1.2,4.3.57,1.73-.98,2.29-.13,3.22.88,1.17,1.27,2.49,2.37,4.45,1.98,1.36-.27,2.21.31,2.68,1.6.64,1.73,2,2.64,3.77,2.8,1.11.1,1.46.65,1.79,1.61.43,1.26.86,3.09,1.8,3.51,2.41,1.07,2.91,2.69,2.58,4.96-.02.16,0,.33.01.5.05,1.08.23,1.76-.12,1.82H21.2c-.35-.06-.17-.74-.12-1.82,0-.17.04-.34.01-.5-.33-2.27.17-3.89,2.58-4.96ZM62.94,81.59c0,.63-.51,1.14-1.14,1.14h-28.1c-.63,0-1.14-.51-1.14-1.14v-3.87c0-.63.51-1.14,1.14-1.14h28.1c.63,0,1.14.51,1.14,1.14v3.87ZM80.73,50.06c-.75,4.65-2.39,8.97-5.03,12.86-2.15,3.17-4.6,6.15-7.83,8.27-1.52,1-3.34,2.16-5.04,2.19-5.02.07-10.04.06-15.06.02h0s0,0,0,0h0c-5.02.04-10.04.05-15.06-.02-1.7-.02-3.52-1.19-5.04-2.19-3.23-2.12-5.68-5.1-7.83-8.27-2.64-3.89-4.29-8.21-5.03-12.86-.41-2.54.77-3.57,3.27-3.55,8.33.05,51.09.05,59.42,0,2.49-.02,3.67,1.01,3.27,3.55Z"/>
    </g>
    <circle cx="39.34" cy="29.75" r="2.44"/>
    <circle cx="54.07" cy="29.75" r="2.44"/>
    <ellipse class="cls-4" cx="35.13" cy="35.21" rx="3.93" ry="1.76"/>
    <ellipse class="cls-4" cx="58" cy="35.21" rx="3.93" ry="1.76"/>
    <rect x="69.8" y="10.91" width="3.88" height="10.38" rx="1.75" ry="1.75" transform="translate(39.14 -49.8) rotate(51.03)"/>
    <rect x="75.58" y="15.93" width="3.88" height="10.38" rx="1.75" ry="1.75" transform="translate(72.38 -59.06) rotate(71.09)"/>
    <path class="cls-1" d="M50.82,36.28c-1.45.69-2.66,1.05-3.96,1.03-1.29.02-2.51-.34-3.96-1.03-.04-.02-.11-.03-.09.04l.04.15c.49,1.66,2.24,2.51,4,2.5h.02c1.76.01,3.52-.84,4-2.5l.04-.15c.01-.07-.05-.06-.09-.04Z"/>
  </g>
</svg>