<svg width="16" height="16" viewBox="0 0 16 16" fill="none" xmlns="http://www.w3.org/2000/svg">
<path d="M16.0001 16H8.01206C6.45139 15.9993 4.92501 15.542 3.62094 14.6847C2.31687 13.8273 1.29206 12.6072 0.672737 11.1746C0.0534139 9.74211 -0.133372 8.15971 0.135386 6.62235C0.404144 5.08499 1.11671 3.65981 2.18531 2.52236C3.25391 1.38491 4.63188 0.584861 6.14949 0.220759C7.6671 -0.143343 9.25807 -0.0555971 10.7264 0.47319C12.1948 1.00198 13.4764 1.94871 14.4135 3.19678C15.3505 4.44485 15.902 5.93974 16.0001 7.49733V7.53933V16ZM8.01206 1.33333C6.24396 1.33333 4.54826 2.03571 3.29802 3.28596C2.04778 4.5362 1.3454 6.23189 1.3454 8C1.3454 9.76811 2.04778 11.4638 3.29802 12.714C4.54826 13.9643 6.24396 14.6667 8.01206 14.6667H14.6667V7.56067C14.5524 5.87288 13.8019 4.29135 12.5667 3.13549C11.3315 1.97962 9.70372 1.33555 8.01206 1.33333Z" fill="#999999"/>
<path d="M8.66675 4.66699H4.66675V6.00033H8.66675V4.66699Z" fill="#999999"/>
<path d="M11.3334 7.33301H4.66675V8.66634H11.3334V7.33301Z" fill="#999999"/>
<path d="M11.3334 10H4.66675V11.3333H11.3334V10Z" fill="#999999"/>
</svg>
