<svg width="21" height="20" viewBox="0 0 21 20" fill="none" xmlns="http://www.w3.org/2000/svg">
<path fill-rule="evenodd" clip-rule="evenodd" d="M13 8.5C13 8.91421 12.6642 9.25 12.25 9.25H10V11.5C10 11.9142 9.66421 12.25 9.25 12.25C8.83579 12.25 8.5 11.9142 8.5 11.5V9.25H6.25C5.83579 9.25 5.5 8.91421 5.5 8.5C5.5 8.08579 5.83579 7.75 6.25 7.75H8.5V5.5C8.5 5.08579 8.83579 4.75 9.25 4.75C9.66421 4.75 10 5.08579 10 5.5V7.75H12.25C12.6642 7.75 13 8.08579 13 8.5ZM20.2806 19.5306C20.1399 19.6715 19.9491 19.7506 19.75 19.7506C19.5509 19.7506 19.3601 19.6715 19.2194 19.5306L14.5262 14.8366C11.133 17.6629 6.11693 17.3204 3.13935 14.0591C0.161763 10.7978 0.275999 5.77134 3.39867 2.64867C6.52134 -0.474001 11.5478 -0.588237 14.8091 2.38935C18.0704 5.36693 18.4129 10.383 15.5866 13.7762L20.2806 18.4694C20.4215 18.6101 20.5006 18.8009 20.5006 19C20.5006 19.1991 20.4215 19.3899 20.2806 19.5306ZM9.25 15.25C12.9779 15.25 16 12.2279 16 8.5C16 4.77208 12.9779 1.75 9.25 1.75C5.52208 1.75 2.5 4.77208 2.5 8.5C2.50413 12.2262 5.52379 15.2459 9.25 15.25Z" fill="#999999"/>
</svg>
