<svg width="24" height="24" viewBox="0 0 24 24" fill="none" xmlns="http://www.w3.org/2000/svg">
<g clip-path="url(#clip0_4954_4497)">
<path d="M22.6303 7.23768C23.4793 5.52168 25.1633 1.26868 22.7633 0.149678C22.4064 0.00114058 22.0135 -0.0379524 21.6344 0.0373672C21.2553 0.112687 20.9072 0.299018 20.6343 0.572677L15.6743 5.87268C15.5806 5.96473 15.5059 6.07434 15.4546 6.19525C15.4032 6.31616 15.3762 6.44599 15.3751 6.57734C15.3739 6.70869 15.3986 6.83898 15.4478 6.96077C15.497 7.08257 15.5697 7.19348 15.6618 7.28718C15.7538 7.38088 15.8634 7.45552 15.9843 7.50686C16.1052 7.5582 16.2351 7.58522 16.3664 7.58638C16.4978 7.58754 16.6281 7.56282 16.7499 7.51363C16.8716 7.46443 16.9826 7.39173 17.0763 7.29968L21.9633 2.07968C21.8443 5.85668 19.6203 8.67968 17.1223 11.5187C16.9305 11.703 16.8198 11.956 16.8146 12.2219C16.8093 12.4878 16.9099 12.7449 17.0943 12.9367C17.2786 13.1284 17.5315 13.2391 17.7975 13.2444C18.0634 13.2496 18.3205 13.149 18.5123 12.9647C20.1538 11.2641 21.5408 9.33516 22.6303 7.23768ZM5.95826 16.1997C6.0945 16.0504 6.26468 15.9361 6.4544 15.8665C6.64412 15.7969 6.84781 15.774 7.04826 15.7997C8.2083 15.9554 9.38835 15.8564 10.5063 15.5097C10.6774 15.4592 10.8591 15.4561 11.0319 15.5008C11.2047 15.5456 11.3621 15.6364 11.4873 15.7637C12.9813 18.0197 8.21326 17.8767 7.17526 17.8437L1.69226 23.6827C1.60224 23.7784 1.49424 23.8555 1.37444 23.9095C1.25463 23.9635 1.12537 23.9933 0.994019 23.9974C0.862671 24.0014 0.731812 23.9795 0.608915 23.933C0.486019 23.8865 0.373493 23.8162 0.27776 23.7262C0.182026 23.6362 0.104959 23.5282 0.0509624 23.4084C-0.00303459 23.2886 -0.0329037 23.1593 -0.0369434 23.0279C-0.0409832 22.8966 -0.0191116 22.7657 0.027422 22.6428C0.0739555 22.5199 0.144238 22.4074 0.234259 22.3117L5.95826 16.1997ZM8.96326 13.9997C8.30666 14.0006 7.65634 13.8719 7.04956 13.6211C6.44278 13.3702 5.89148 13.002 5.42726 12.5377L0.256258 7.36568C0.163282 7.27283 0.0895061 7.16258 0.0391369 7.04123C-0.0112324 6.91987 -0.0372047 6.78978 -0.0372982 6.65838C-0.0373917 6.52699 -0.0116024 6.39686 0.0385952 6.27543C0.0887928 6.15401 0.162415 6.04365 0.255259 5.95068C0.348103 5.8577 0.458353 5.78392 0.57971 5.73355C0.701067 5.68319 0.831156 5.65721 0.962551 5.65712C1.09395 5.65703 1.22407 5.68282 1.3455 5.73301C1.46693 5.78321 1.57728 5.85683 1.67026 5.94968L6.84126 11.1217C7.28041 11.557 7.84335 11.846 8.45304 11.9491C9.06273 12.0522 9.68939 11.9644 10.2473 11.6977L3.25626 4.70668C3.16075 4.61443 3.08457 4.50409 3.03216 4.38208C2.97975 4.26008 2.95216 4.12886 2.95101 3.99608C2.94985 3.8633 2.97515 3.73162 3.02544 3.60872C3.07572 3.48583 3.14997 3.37418 3.24386 3.28028C3.33776 3.18639 3.44941 3.11214 3.57231 3.06186C3.6952 3.01157 3.82688 2.98627 3.95966 2.98743C4.09244 2.98858 4.22366 3.01617 4.34566 3.06858C4.46767 3.12099 4.57801 3.19717 4.67026 3.29268L11.6633 10.2837C11.93 9.72581 12.0178 9.09915 11.9147 8.48946C11.8116 7.87976 11.5226 7.31683 11.0873 6.87768L5.91326 1.70668C5.7311 1.51808 5.63031 1.26547 5.63259 1.00328C5.63486 0.74108 5.74003 0.490267 5.92544 0.304859C6.11085 0.119451 6.36166 0.0142819 6.62386 0.0120035C6.88605 0.00972505 7.13866 0.110519 7.32726 0.292678L12.4993 5.46368C13.3125 6.27969 13.8197 7.35106 13.9354 8.4973C14.051 9.64355 13.7681 10.7946 13.1343 11.7567L23.6703 22.2927C23.8524 22.4813 23.9532 22.7339 23.9509 22.9961C23.9487 23.2583 23.8435 23.5091 23.6581 23.6945C23.4727 23.8799 23.2219 23.9851 22.9597 23.9874C22.6975 23.9896 22.4449 23.8888 22.2563 23.7067L11.7203 13.1707C10.9024 13.7113 9.94366 13.9996 8.96326 13.9997Z" fill="black"/>
</g>
<defs>
<clipPath id="clip0_4954_4497">
<rect width="24" height="23.9979" fill="white" transform="matrix(-1 0 0 1 24 0)"/>
</clipPath>
</defs>
</svg>
