<svg width="19" height="19" viewBox="0 0 19 19" fill="none" xmlns="http://www.w3.org/2000/svg">
<path fill-rule="evenodd" clip-rule="evenodd" d="M18.75 8.83281V17.5C18.75 18.3284 18.0784 19 17.25 19H13.5C12.6716 19 12 18.3284 12 17.5V13.75C12 13.3358 11.6642 13 11.25 13H8.25C7.83579 13 7.5 13.3358 7.5 13.75V17.5C7.5 18.3284 6.82843 19 6 19H2.25C1.42157 19 0.75 18.3284 0.75 17.5V8.83281C0.749936 8.41309 0.92573 8.01254 1.23469 7.72844L8.73469 0.652188L8.745 0.641875C9.31719 0.121501 10.1912 0.121501 10.7634 0.641875C10.7666 0.645543 10.7701 0.648989 10.7738 0.652188L18.2738 7.72844C18.5796 8.01402 18.7522 8.41437 18.75 8.83281Z" fill="#999999"/>
</svg>
