<svg width="63" height="63" viewBox="0 0 63 63" fill="none" xmlns="http://www.w3.org/2000/svg">
<path fill-rule="evenodd" clip-rule="evenodd" d="M43.3125 33.4688H33.4688V43.3125C33.4688 44.3953 32.5887 45.2812 31.5 45.2812C30.4113 45.2812 29.5312 44.3953 29.5312 43.3125V33.4688H19.6875C18.5988 33.4688 17.7188 32.5828 17.7188 31.5C17.7188 30.4172 18.5988 29.5312 19.6875 29.5312H29.5312V19.6875C29.5312 18.6047 30.4113 17.7188 31.5 17.7188C32.5887 17.7188 33.4688 18.6047 33.4688 19.6875V29.5312H43.3125C44.4012 29.5312 45.2812 30.4172 45.2812 31.5C45.2812 32.5828 44.4012 33.4688 43.3125 33.4688ZM31.5 0C14.1022 0 0 14.0962 0 31.5C0 48.9038 14.1022 63 31.5 63C48.8978 63 63 48.9038 63 31.5C63 14.0962 48.8978 0 31.5 0Z" fill="#F56E26"/>
</svg>
