<svg width="20" height="12" viewBox="0 0 20 12" fill="none" xmlns="http://www.w3.org/2000/svg">
<path fill-rule="evenodd" clip-rule="evenodd" d="M19.75 11.25C19.75 11.6642 19.4142 12 19 12H13.0881C12.5196 12.0018 11.9994 11.6805 11.7466 11.1713L6.91187 1.50001H1C0.585786 1.50001 0.25 1.16422 0.25 0.750008C0.25 0.335794 0.585786 7.67964e-06 1 7.67964e-06H6.91187C7.48041 -0.00181104 8.0006 0.319536 8.25344 0.828758L13.0881 10.5H19C19.4142 10.5 19.75 10.8358 19.75 11.25ZM12.25 1.50001H19C19.4142 1.50001 19.75 1.16422 19.75 0.750008C19.75 0.335794 19.4142 7.67964e-06 19 7.67964e-06H12.25C11.8358 7.67964e-06 11.5 0.335794 11.5 0.750008C11.5 1.16422 11.8358 1.50001 12.25 1.50001Z" fill="#21120A"/>
</svg>
