<svg width="20" height="20" viewBox="0 0 20 20" fill="none" xmlns="http://www.w3.org/2000/svg">
<path fill-rule="evenodd" clip-rule="evenodd" d="M10.25 0.25C4.86522 0.25 0.5 4.61522 0.5 10C0.5 15.3848 4.86522 19.75 10.25 19.75C15.6348 19.75 20 15.3848 20 10C19.9943 4.61758 15.6324 0.255684 10.25 0.25ZM5.195 16.5156C6.2976 14.7912 8.2032 13.7478 10.25 13.7478C12.2968 13.7478 14.2024 14.7912 15.305 16.5156C12.3317 18.828 8.16832 18.828 5.195 16.5156ZM7.25 9.25C7.25 7.59315 8.59315 6.25 10.25 6.25C11.9069 6.25 13.25 7.59315 13.25 9.25C13.25 10.9069 11.9069 12.25 10.25 12.25C8.59315 12.25 7.25 10.9069 7.25 9.25ZM16.415 15.4759C15.5785 14.2638 14.4024 13.3261 13.0344 12.7806C14.5406 11.5943 15.1297 9.58375 14.5019 7.77207C13.8742 5.96039 12.1674 4.74548 10.25 4.74548C8.33263 4.74548 6.62584 5.96039 5.99805 7.77207C5.37026 9.58375 5.95936 11.5943 7.46562 12.7806C6.09764 13.3261 4.92147 14.2638 4.085 15.4759C1.14046 12.1647 1.33752 7.11881 4.53133 4.0473C7.72513 0.975791 12.7749 0.975791 15.9687 4.0473C19.1625 7.11881 19.3595 12.1647 16.415 15.4759Z" fill="#AD5E33"/>
</svg>
