<svg width="157" height="157" viewBox="0 0 157 157" fill="none" xmlns="http://www.w3.org/2000/svg">
<path d="M130.395 85.3107C129.16 94.7304 125.384 103.636 119.472 111.073C113.56 118.51 105.735 124.197 96.8362 127.524C87.9377 130.852 78.3012 131.694 68.9602 129.961C59.6192 128.228 50.9262 123.985 43.8133 117.687C36.7005 111.389 31.4363 103.274 28.5851 94.2116C25.734 85.1491 25.4036 75.4815 27.6293 66.2455C29.855 57.0096 34.5529 48.5537 41.2191 41.7847C47.8853 35.0158 56.2683 30.1892 65.4692 27.8225C90.9752 21.2808 117.377 34.41 127.124 58.8758" stroke="#F56E26" stroke-width="10" stroke-linecap="round" stroke-linejoin="round"/>
<path d="M130.833 26.168V58.8763H98.125" stroke="#F56E26" stroke-width="10" stroke-linecap="round" stroke-linejoin="round"/>
</svg>
