<svg width="29" height="26" viewBox="0 0 29 26" fill="none" xmlns="http://www.w3.org/2000/svg">
<path d="M20.9141 0.5C19.6009 0.520756 18.3163 0.893265 17.1901 1.57991C16.0639 2.26655 15.136 3.24302 14.5 4.41069C13.864 3.24302 12.9361 2.26655 11.8099 1.57991C10.6837 0.893265 9.39912 0.520756 8.08592 0.5C5.99253 0.592423 4.02022 1.52301 2.59988 3.08844C1.17954 4.65388 0.426635 6.72691 0.505646 8.85466C0.505646 14.2431 6.08706 20.1281 10.7682 24.1182C11.8133 25.0107 13.1348 25.5 14.5 25.5C15.8652 25.5 17.1867 25.0107 18.2318 24.1182C22.9129 20.1281 28.4944 14.2431 28.4944 8.85466C28.5734 6.72691 27.8205 4.65388 26.4001 3.08844C24.9798 1.52301 23.0075 0.592423 20.9141 0.5ZM16.7333 22.3051C16.1082 22.84 15.3172 23.1333 14.5 23.1333C13.6828 23.1333 12.8918 22.84 12.2667 22.3051C6.27482 17.1963 2.83804 12.2949 2.83804 8.85466C2.75832 7.35522 3.26529 5.88458 4.24839 4.76348C5.23149 3.64238 6.61096 2.96178 8.08592 2.87011C9.56089 2.96178 10.9403 3.64238 11.9234 4.76348C12.9065 5.88458 13.4135 7.35522 13.3338 8.85466C13.3338 9.16895 13.4567 9.47038 13.6754 9.69262C13.8941 9.91486 14.1907 10.0397 14.5 10.0397C14.8093 10.0397 15.1059 9.91486 15.3246 9.69262C15.5433 9.47038 15.6662 9.16895 15.6662 8.85466C15.5865 7.35522 16.0935 5.88458 17.0766 4.76348C18.0597 3.64238 19.4391 2.96178 20.9141 2.87011C22.389 2.96178 23.7685 3.64238 24.7516 4.76348C25.7347 5.88458 26.2417 7.35522 26.162 8.85466C26.162 12.2949 22.7252 17.1963 16.7333 22.3003V22.3051Z" fill="#999999"/>
</svg>
