<svg width="17" height="18" viewBox="0 0 17 18" fill="none" xmlns="http://www.w3.org/2000/svg">
<path fill-rule="evenodd" clip-rule="evenodd" d="M15.4898 7.90625L2.36484 0.414844C1.91187 0.160746 1.34896 0.213225 0.950768 0.546676C0.552572 0.880127 0.402055 1.42507 0.572656 1.91563L2.99453 8.98359C2.99422 8.98619 2.99422 8.98881 2.99453 8.99141C2.99409 8.99399 2.99409 8.99663 2.99453 8.99922L0.572656 16.0828C0.437248 16.4653 0.495882 16.8897 0.729919 17.2211C0.963957 17.5525 1.34428 17.7497 1.75 17.75C1.96693 17.7494 2.18005 17.6929 2.36875 17.5859L15.4867 10.082C15.8807 9.86133 16.125 9.4453 16.1258 8.99372C16.1266 8.54214 15.8838 8.12523 15.4906 7.90312L15.4898 7.90625ZM1.75 16.5V16.493L4.10469 9.625H8.625C8.97018 9.625 9.25 9.34518 9.25 9C9.25 8.65482 8.97018 8.375 8.625 8.375H4.11094L1.75469 1.50938L1.75 1.5L14.875 8.98672L1.75 16.5Z" fill="#999999"/>
</svg>
