<svg width="16" height="16" viewBox="0 0 16 16" fill="none" xmlns="http://www.w3.org/2000/svg">
<g clip-path="url(#clip0_4949_3635)">
<path d="M11.814 2L10.872 0.778667C10.6844 0.537204 10.4443 0.341611 10.1698 0.206703C9.89538 0.0717943 9.59384 0.0011087 9.28804 0L6.71204 0C6.40623 0.0011087 6.10469 0.0717943 5.83026 0.206703C5.55582 0.341611 5.31568 0.537204 5.12804 0.778667L4.18604 2H11.814Z" fill="#999999"/>
<path d="M8.00004 12C9.4728 12 10.6667 10.8061 10.6667 9.33329C10.6667 7.86053 9.4728 6.66663 8.00004 6.66663C6.52728 6.66663 5.33337 7.86053 5.33337 9.33329C5.33337 10.8061 6.52728 12 8.00004 12Z" fill="#999999"/>
<path d="M12.6667 3.33337H3.33333C2.4496 3.33443 1.60237 3.68596 0.97748 4.31085C0.352588 4.93575 0.00105857 5.78298 0 6.66671L0 12.6667C0.00105857 13.5504 0.352588 14.3977 0.97748 15.0226C1.60237 15.6475 2.4496 15.999 3.33333 16H12.6667C13.5504 15.999 14.3976 15.6475 15.0225 15.0226C15.6474 14.3977 15.9989 13.5504 16 12.6667V6.66671C15.9989 5.78298 15.6474 4.93575 15.0225 4.31085C14.3976 3.68596 13.5504 3.33443 12.6667 3.33337ZM8 13.3334C7.20887 13.3334 6.43552 13.0988 5.77772 12.6593C5.11992 12.2197 4.60723 11.595 4.30448 10.8641C4.00173 10.1332 3.92252 9.32894 4.07686 8.55301C4.2312 7.77709 4.61216 7.06436 5.17157 6.50495C5.73098 5.94554 6.44372 5.56457 7.21964 5.41023C7.99556 5.25589 8.79983 5.33511 9.53073 5.63786C10.2616 5.94061 10.8864 6.4533 11.3259 7.11109C11.7654 7.76889 12 8.54225 12 9.33337C11.9989 10.3939 11.5772 11.4107 10.8273 12.1606C10.0773 12.9105 9.06054 13.3323 8 13.3334Z" fill="#999999"/>
</g>
<defs>
<clipPath id="clip0_4949_3635">
<rect width="16" height="16" fill="white"/>
</clipPath>
</defs>
</svg>
