<svg width="59" height="59" viewBox="0 0 59 59" fill="none" xmlns="http://www.w3.org/2000/svg">
<path d="M0 8C0 3.58172 3.58172 0 8 0H59V59H8C3.58172 59 0 55.4183 0 51V8Z" fill="#FAF2F0"/>
<path d="M34.5 27.539C30.641 27.539 27.5 30.679 27.5 34.539C27.5 38.377 30.641 41.5 34.5 41.5C38.359 41.5 41.5 38.36 41.5 34.5C41.5 30.662 38.359 27.539 34.5 27.539ZM34.5 39.5C31.743 39.5 29.5 37.274 29.5 34.539C29.5 31.782 31.743 29.539 34.5 29.539C37.257 29.539 39.5 31.765 39.5 34.5C39.5 37.257 37.257 39.5 34.5 39.5ZM36.207 34.793C36.598 35.184 36.598 35.816 36.207 36.207C36.012 36.402 35.756 36.5 35.5 36.5C35.244 36.5 34.988 36.402 34.793 36.207L33.793 35.207C33.605 35.019 33.5 34.765 33.5 34.5V32.5C33.5 31.948 33.947 31.5 34.5 31.5C35.053 31.5 35.5 31.948 35.5 32.5V34.086L36.207 34.793ZM41.5 24.5V26.5C41.5 27.052 41.053 27.5 40.5 27.5C39.947 27.5 39.5 27.052 39.5 26.5V24.5C39.5 22.846 38.154 21.5 36.5 21.5H22.5C20.846 21.5 19.5 22.846 19.5 24.5V25.5H28.5C29.052 25.5 29.5 25.948 29.5 26.5C29.5 27.052 29.052 27.5 28.5 27.5H19.5V36.5C19.5 38.154 20.846 39.5 22.5 39.5H26.5C27.052 39.5 27.5 39.948 27.5 40.5C27.5 41.052 27.052 41.5 26.5 41.5H22.5C19.743 41.5 17.5 39.257 17.5 36.5V24.5C17.5 21.743 19.743 19.5 22.5 19.5H23.5V18.5C23.5 17.948 23.948 17.5 24.5 17.5C25.052 17.5 25.5 17.948 25.5 18.5V19.5H33.5V18.5C33.5 17.948 33.947 17.5 34.5 17.5C35.053 17.5 35.5 17.948 35.5 18.5V19.5H36.5C39.257 19.5 41.5 21.743 41.5 24.5Z" fill="#666666"/>
</svg>
